<svg width="24" height="24" viewBox="0 0 24 24" fill="none" xmlns="http://www.w3.org/2000/svg">
<path fill-rule="evenodd" clip-rule="evenodd" d="M12.769 1.36608C11.4672 0.877939 10.0328 0.87794 8.73104 1.36608L4.43329 2.97774C2.96965 3.52661 2 4.92581 2 6.48897V11.41C2 14.7448 4.21131 17.4352 6.25612 19.2244C7.29428 20.1328 8.32891 20.8437 9.1025 21.3272C9.49008 21.5695 9.81413 21.7558 10.043 21.8825C10.1575 21.9459 10.2483 21.9944 10.3115 22.0276C10.3291 22.0369 10.3446 22.0449 10.3578 22.0518C10.3684 22.0572 10.3775 22.0619 10.3852 22.0659L10.4056 22.0763L10.4116 22.0793L10.4134 22.0802L10.4141 22.0806C10.4144 22.0807 10.4146 22.0808 10.75 21.41L10.4146 22.0808C10.6257 22.1864 10.8743 22.1864 11.0854 22.0808L10.75 21.41C11.0854 22.0808 11.0856 22.0807 11.0859 22.0806L11.0866 22.0802L11.0884 22.0793L11.0944 22.0763L11.1148 22.0659C11.1321 22.057 11.1569 22.0442 11.1885 22.0276C11.2517 21.9944 11.3425 21.9459 11.457 21.8825C11.6859 21.7558 12.0099 21.5695 12.3975 21.3272C12.6029 21.1989 12.8266 21.0545 13.064 20.8946C12.6431 20.5899 12.2531 20.2453 11.8994 19.8663C11.7967 19.9328 11.6976 19.9958 11.6025 20.0552C11.2512 20.2748 10.9577 20.444 10.75 20.5594C10.5423 20.444 10.2488 20.2748 9.8975 20.0552C9.17109 19.6012 8.20572 18.9371 7.24388 18.0955C5.28869 16.3848 3.5 14.0751 3.5 11.41V6.48897C3.5 5.55107 4.08179 4.71155 4.95997 4.38223L9.25773 2.77058C10.2199 2.40978 11.2801 2.40978 12.2423 2.77058L16.54 4.38223C17.3947 4.70272 17.9686 5.50643 17.9988 6.41377C18.5128 6.42947 19.0147 6.49367 19.5 6.60196V6.48897C19.5 4.92581 18.5304 3.5266 17.0667 2.97774L12.769 1.36608Z" stroke="#064D26" fill="black"/>
<path d="M21.0731 18.1459C20.3123 17.1418 19.1069 16.4932 17.75 16.4932C16.3931 16.4932 15.1877 17.1418 14.4269 18.1459M21.0731 18.1459C22.1019 17.2301 22.75 15.8957 22.75 14.4099C22.75 11.6485 20.5114 9.40991 17.75 9.40991C14.9886 9.40991 12.75 11.6485 12.75 14.4099C12.75 15.8957 13.3981 17.2301 14.4269 18.1459M21.0731 18.1459C20.1897 18.9322 19.0256 19.4099 17.75 19.4099C16.4744 19.4099 15.3103 18.9322 14.4269 18.1459M19.4167 13.1599C19.4167 14.0804 18.6705 14.8266 17.75 14.8266C16.8295 14.8266 16.0833 14.0804 16.0833 13.1599C16.0833 12.2394 16.8295 11.4932 17.75 11.4932C18.6705 11.4932 19.4167 12.2394 19.4167 13.1599Z" stroke="#064D26" stroke-width="1.5" stroke-linecap="round" stroke-linejoin="round"/>
</svg>
