<svg width="210" height="40" viewBox="0 0 210 40" fill="none" xmlns="http://www.w3.org/2000/svg">
<path d="M16 20H24M20 16V24M11 13C11 12.4696 11.2107 11.9609 11.5858 11.5858C11.9609 11.2107 12.4696 11 13 11H27C27.5304 11 28.0391 11.2107 28.4142 11.5858C28.7893 11.9609 29 12.4696 29 13V27C29 27.5304 28.7893 28.0391 28.4142 28.4142C28.0391 28.7893 27.5304 29 27 29H13C12.4696 29 11.9609 28.7893 11.5858 28.4142C11.2107 28.0391 11 27.5304 11 27V13Z" stroke="#064D26" stroke-width="1.5" stroke-linecap="round" stroke-linejoin="round"/>
<path d="M49.324 25H47.364L42.926 18.294V25H40.966V15.214H42.926L47.364 21.934V15.214H49.324V25ZM58.5829 17.244V25H56.6089V24.02C56.3569 24.356 56.0256 24.622 55.6149 24.818C55.2136 25.0047 54.7749 25.098 54.2989 25.098C53.6923 25.098 53.1556 24.972 52.6889 24.72C52.2223 24.4587 51.8536 24.0807 51.5829 23.586C51.3216 23.082 51.1909 22.4847 51.1909 21.794V17.244H53.1509V21.514C53.1509 22.13 53.3049 22.606 53.6129 22.942C53.9209 23.2687 54.3409 23.432 54.8729 23.432C55.4143 23.432 55.8389 23.2687 56.1469 22.942C56.4549 22.606 56.6089 22.13 56.6089 21.514V17.244H58.5829ZM67.7268 20.954C67.7268 21.234 67.7081 21.486 67.6708 21.71H62.0008C62.0474 22.27 62.2434 22.7087 62.5888 23.026C62.9341 23.3433 63.3588 23.502 63.8628 23.502C64.5908 23.502 65.1088 23.1893 65.4168 22.564H67.5308C67.3068 23.3107 66.8774 23.9267 66.2428 24.412C65.6081 24.888 64.8288 25.126 63.9048 25.126C63.1581 25.126 62.4861 24.9627 61.8888 24.636C61.3008 24.3 60.8388 23.8287 60.5028 23.222C60.1761 22.6153 60.0128 21.9153 60.0128 21.122C60.0128 20.3193 60.1761 19.6147 60.5028 19.008C60.8294 18.4013 61.2868 17.9347 61.8748 17.608C62.4628 17.2813 63.1394 17.118 63.9048 17.118C64.6421 17.118 65.3001 17.2767 65.8788 17.594C66.4668 17.9113 66.9194 18.364 67.2368 18.952C67.5634 19.5307 67.7268 20.198 67.7268 20.954ZM65.6968 20.394C65.6874 19.89 65.5054 19.4887 65.1508 19.19C64.7961 18.882 64.3621 18.728 63.8488 18.728C63.3634 18.728 62.9528 18.8773 62.6168 19.176C62.2901 19.4653 62.0894 19.8713 62.0148 20.394H65.6968ZM72.3914 23.194L74.3514 17.244H76.4374L73.5674 25H71.1874L68.3314 17.244H70.4314L72.3914 23.194ZM80.9823 25.126C80.2356 25.126 79.5636 24.9627 78.9663 24.636C78.3689 24.3 77.8976 23.8287 77.5523 23.222C77.2163 22.6153 77.0483 21.9153 77.0483 21.122C77.0483 20.3287 77.2209 19.6287 77.5663 19.022C77.9209 18.4153 78.4016 17.9487 79.0083 17.622C79.6149 17.286 80.2916 17.118 81.0383 17.118C81.7849 17.118 82.4616 17.286 83.0683 17.622C83.6749 17.9487 84.1509 18.4153 84.4963 19.022C84.8509 19.6287 85.0283 20.3287 85.0283 21.122C85.0283 21.9153 84.8463 22.6153 84.4823 23.222C84.1276 23.8287 83.6423 24.3 83.0263 24.636C82.4196 24.9627 81.7383 25.126 80.9823 25.126ZM80.9823 23.418C81.3369 23.418 81.6683 23.334 81.9763 23.166C82.2936 22.9887 82.5456 22.7273 82.7323 22.382C82.9189 22.0367 83.0123 21.6167 83.0123 21.122C83.0123 20.3847 82.8163 19.82 82.4243 19.428C82.0416 19.0267 81.5703 18.826 81.0103 18.826C80.4503 18.826 79.9789 19.0267 79.5963 19.428C79.2229 19.82 79.0363 20.3847 79.0363 21.122C79.0363 21.8593 79.2183 22.4287 79.5823 22.83C79.9556 23.222 80.4223 23.418 80.9823 23.418Z" fill="#064D26"/>
<path d="M199 17.5L194 22.5L189 17.5" stroke="#064D26" stroke-width="1.5" stroke-linecap="round" stroke-linejoin="round"/>
</svg>
