<svg width="17" height="19" viewBox="0 0 17 19" fill="none" xmlns="http://www.w3.org/2000/svg">
<path d="M10.5814 6.88462L10.2796 14.7308M6.10503 14.7308L5.80326 6.88462M14.4933 4.08665C14.7915 4.13167 15.0886 4.17984 15.3846 4.23113M14.4933 4.08665L13.5624 16.1889C13.4838 17.2109 12.6316 18 11.6066 18H4.77798C3.75301 18 2.90084 17.2109 2.82222 16.1889L1.89128 4.08665M14.4933 4.08665C13.4939 3.93571 12.4829 3.82013 11.4615 3.74121M1 4.23113C1.29604 4.17984 1.59314 4.13167 1.89128 4.08665M1.89128 4.08665C2.89073 3.93571 3.90176 3.82013 4.92308 3.74121M11.4615 3.74121V2.94252C11.4615 1.91436 10.6676 1.056 9.64 1.02312C9.15932 1.00775 8.67672 1 8.19231 1C7.7079 1 7.22529 1.00775 6.74462 1.02312C5.71698 1.056 4.92308 1.91436 4.92308 2.94252V3.74121M11.4615 3.74121C10.3827 3.65784 9.29248 3.61538 8.19231 3.61538C7.09213 3.61538 6.00187 3.65784 4.92308 3.74121" stroke="black" stroke-width="1.5" stroke-linecap="round" stroke-linejoin="round"/>
</svg>
