<svg width="32" height="32" viewBox="0 0 32 32" fill="none" xmlns="http://www.w3.org/2000/svg">
<rect width="32" height="32" rx="16" fill="#F12B2C"/>
<path d="M18.5814 12.8846L18.2796 20.7308M14.105 20.7308L13.8033 12.8846M22.4933 10.0867C22.7915 10.1317 23.0886 10.1798 23.3846 10.2311M22.4933 10.0867L21.5624 22.1889C21.4838 23.2109 20.6316 24 19.6066 24H12.778C11.753 24 10.9008 23.2109 10.8222 22.1889L9.89128 10.0867M22.4933 10.0867C21.4939 9.93571 20.4829 9.82013 19.4615 9.74121M9 10.2311C9.29604 10.1798 9.59314 10.1317 9.89128 10.0867M9.89128 10.0867C10.8907 9.93571 11.9018 9.82013 12.9231 9.74121M19.4615 9.74121V8.94252C19.4615 7.91436 18.6676 7.056 17.64 7.02312C17.1593 7.00775 16.6767 7 16.1923 7C15.7079 7 15.2253 7.00775 14.7446 7.02312C13.717 7.056 12.9231 7.91436 12.9231 8.94252V9.74121M19.4615 9.74121C18.3827 9.65784 17.2925 9.61538 16.1923 9.61538C15.0921 9.61538 14.0019 9.65784 12.9231 9.74121" stroke="white" stroke-width="1.5" stroke-linecap="round" stroke-linejoin="round"/>
</svg>
