<?xml version="1.0" encoding="utf-8"?>
<svg xmlns="http://www.w3.org/2000/svg" width="512" height="512" viewBox="0 0 32 32" style="shape-rendering:geometricPrecision; text-rendering:geometricPrecision; image-rendering:optimizeQuality; fill-rule:evenodd; clip-rule:evenodd">
  <circle cx="16" cy="16" r="16" fill="#4682B4"/>
  <path d="M 14.38 18.57 L 19.76 23.95 C 20.222 24.397 20.84 24.644 21.482 24.639 C 22.124 24.634 22.739 24.376 23.193 23.922 C 23.647 23.468 23.904 22.854 23.91 22.211 C 23.915 21.569 23.667 20.951 23.221 20.489 L 17.797 15.066 M 14.38 18.57 L 17.683 15.774 C 17.976 15.419 18.366 15.196 18.798 15.067 C 19.306 14.915 19.871 14.893 20.407 14.937 C 21.128 14.999 21.853 14.872 22.51 14.567 C 23.167 14.262 23.733 13.791 24.151 13.2 C 24.57 12.609 24.826 11.918 24.896 11.198 C 24.965 10.477 24.845 9.75 24.547 9.09 L 21.523 12.115 C 21.017 11.998 20.555 11.741 20.188 11.374 C 19.821 11.007 19.564 10.544 19.447 10.038 L 22.47 7.015 C 21.81 6.717 21.084 6.596 20.363 6.666 C 19.642 6.735 18.952 6.992 18.361 7.41 C 17.77 7.829 17.299 8.394 16.994 9.051 C 16.689 9.708 16.561 10.433 16.623 11.155 C 16.707 12.148 16.557 13.244 15.789 13.877 L 15.695 13.956 M 14.38 18.57 L 11.084 23.787 C 10.876 24.04 10.617 24.248 10.324 24.395 C 10.03 24.543 9.71 24.628 9.382 24.644 C 9.054 24.66 8.726 24.607 8.42 24.489 C 8.114 24.371 7.836 24.19 7.603 23.958 C 7.371 23.726 7.19 23.448 7.072 23.141 C 6.954 22.835 6.901 22.508 6.918 22.18 C 6.934 21.852 7.018 21.531 7.166 21.238 C 7.314 20.945 7.521 20.686 7.775 20.477 L 14.084 15.282 L 10.294 11.492 L 8.994 11.492 L 6.917 8.031 L 8.302 6.647 L 11.762 8.723 L 11.762 10.023 L 15.694 13.955 L 14.083 15.281 M 20.798 21.528 L 18.376 19.105 M 9.333 22.22 L 9.34 22.22 L 9.34 22.227 L 9.333 22.227 L 9.333 22.22 Z" fill="none" stroke="white" stroke-width="1.5" stroke-linecap="round" stroke-linejoin="round"/>
</svg>