<svg width="24" height="24" viewBox="0 0 24 24" fill="none" xmlns="http://www.w3.org/2000/svg">
<path fill-rule="evenodd" clip-rule="evenodd" d="M4 12.75C3.9337 12.75 3.87011 12.7763 3.82322 12.8232C3.77634 12.8701 3.75 12.9337 3.75 13V19C3.75 19.0663 3.77634 19.1299 3.82322 19.1768C3.87011 19.2237 3.93369 19.25 4 19.25H8C8.06631 19.25 8.12989 19.2237 8.17678 19.1768C8.22366 19.1299 8.25 19.0663 8.25 19V13C8.25 12.9337 8.22366 12.8701 8.17678 12.8232C8.12989 12.7763 8.0663 12.75 8 12.75H4ZM2.76256 11.7626C3.09075 11.4344 3.53587 11.25 4 11.25H8C8.46413 11.25 8.90925 11.4344 9.23744 11.7626C9.56563 12.0908 9.75 12.5359 9.75 13V19C9.75 19.4641 9.56563 19.9092 9.23744 20.2374C8.90925 20.5656 8.46413 20.75 8 20.75H4C3.53587 20.75 3.09075 20.5656 2.76256 20.2374C2.43437 19.9092 2.25 19.4641 2.25 19V13C2.25 12.5359 2.43437 12.0908 2.76256 11.7626Z" fill="#064D26"/>
<path fill-rule="evenodd" clip-rule="evenodd" d="M10 8.75C9.9337 8.75 9.87011 8.77634 9.82322 8.82322C9.77634 8.87011 9.75 8.9337 9.75 9V19C9.75 19.0663 9.77634 19.1299 9.82322 19.1768C9.87011 19.2237 9.93369 19.25 10 19.25H14C14.0663 19.25 14.1299 19.2237 14.1768 19.1768C14.2237 19.1299 14.25 19.0663 14.25 19V9C14.25 8.9337 14.2237 8.87011 14.1768 8.82322C14.1299 8.77634 14.0663 8.75 14 8.75H10ZM8.76256 7.76256C9.09075 7.43438 9.53587 7.25 10 7.25H14C14.4641 7.25 14.9092 7.43438 15.2374 7.76256C15.5656 8.09075 15.75 8.53587 15.75 9V19C15.75 19.4641 15.5656 19.9092 15.2374 20.2374C14.9092 20.5656 14.4641 20.75 14 20.75H10C9.53587 20.75 9.09075 20.5656 8.76256 20.2374C8.43437 19.9092 8.25 19.4641 8.25 19V9C8.25 8.53587 8.43438 8.09075 8.76256 7.76256Z" fill="#064D26"/>
<path fill-rule="evenodd" clip-rule="evenodd" d="M16 4.75C15.9337 4.75 15.8701 4.77634 15.8232 4.82322C15.7763 4.87011 15.75 4.9337 15.75 5V19C15.75 19.0663 15.7763 19.1299 15.8232 19.1768C15.8701 19.2237 15.9337 19.25 16 19.25H20C20.0663 19.25 20.1299 19.2237 20.1768 19.1768C20.2237 19.1299 20.25 19.0663 20.25 19V5C20.25 4.93369 20.2237 4.87011 20.1768 4.82322C20.1299 4.77634 20.0663 4.75 20 4.75H16ZM14.7626 3.76256C15.0908 3.43438 15.5359 3.25 16 3.25H20C20.4641 3.25 20.9092 3.43437 21.2374 3.76256C21.5656 4.09075 21.75 4.53587 21.75 5V19C21.75 19.4641 21.5656 19.9092 21.2374 20.2374C20.9092 20.5656 20.4641 20.75 20 20.75H16C15.5359 20.75 15.0908 20.5656 14.7626 20.2374C14.4344 19.9092 14.25 19.4641 14.25 19V5C14.25 4.53587 14.4344 4.09075 14.7626 3.76256Z" fill="#064D26"/>
<path fill-rule="evenodd" clip-rule="evenodd" d="M3.25 20C3.25 19.5858 3.58579 19.25 4 19.25H18C18.4142 19.25 18.75 19.5858 18.75 20C18.75 20.4142 18.4142 20.75 18 20.75H4C3.58579 20.75 3.25 20.4142 3.25 20Z" fill="#064D26"/>
</svg>
