<svg width="24" height="24" viewBox="0 0 24 24" fill="none" xmlns="http://www.w3.org/2000/svg">
<path fill-rule="evenodd" clip-rule="evenodd" d="M10.1615 6.27521C10.1615 4.72191 11.4207 3.46271 12.974 3.46271C14.5273 3.46271 15.7865 4.72191 15.7865 6.27521C15.7865 7.82851 14.5273 9.08771 12.974 9.08771C11.4207 9.08771 10.1615 7.82851 10.1615 6.27521ZM12.974 1.96271C10.5923 1.96271 8.66152 3.89348 8.66152 6.27521C8.66152 6.88976 8.79007 7.4743 9.02175 8.00338L11.9051 10.4542C12.2469 10.5414 12.605 10.5877 12.974 10.5877C15.3557 10.5877 17.2865 8.65694 17.2865 6.27521C17.2865 3.89348 15.3557 1.96271 12.974 1.96271ZM9.95504 12.5371C7.14409 13.7048 5.15569 16.4541 5.10021 19.6746C5.09508 19.9724 5.26662 20.245 5.53729 20.3692C7.80225 21.4086 10.3217 21.9877 12.9743 21.9877C15.3088 21.9877 17.5401 21.5392 19.5856 20.7231L18.2754 19.6094C16.6137 20.1786 14.8307 20.4877 12.9743 20.4877C10.7221 20.4877 8.5778 20.0327 6.6271 19.2102C6.87697 16.544 8.76912 14.3549 11.2817 13.6648L9.95504 12.5371ZM13.6879 11.9696L20.6014 17.8461C19.7852 14.6712 17.0391 12.2708 13.6879 11.9696Z" fill="black"/>
<path d="M3 6.5126L22 22.6626" stroke="#064D26" stroke-width="1.5" stroke-linecap="round"/>
</svg>
